# xmcd
#
# Track frame offsets:
#	180
#	14878
#	27310
#	41352
#	54162
#	69732
#	80901
#	89386
#	108239
#	121488
#
# Disc length: 1781 seconds
#
# Revision: 0
# Processed by: cddbd v1.5.1PL0 Copyright (c) Steve Scherf et al.
# Submitted via: EasyCDDAExtractor 7.5.0.1
#
DISCID=8406f30a
DTITLE=Russ Trio - Inspirational Songs
DYEAR=1987
DGENRE=Male Trio
TTITLE0=Goodbye World Goodbye
TTITLE1=I Belong To The King
TTITLE2=The Haven Of Rest
TTITLE3=I'll Never Be Lonely
TTITLE4=The Eastern Gate
TTITLE5=He Paid The Debt
TTITLE6=Swing Low Sweet Chariot
TTITLE7=How Much More
TTITLE8=How Long Has It Been
TTITLE9=The Touch Of The Master's Hand
EXTD=
EXTT0=
EXTT1=
EXTT2=
EXTT3=
EXTT4=
EXTT5=
EXTT6=
EXTT7=
EXTT8=
EXTT9=
PLAYORDER=
